<svg width="113" height="44" viewBox="0 0 113 44" fill="none" xmlns="http://www.w3.org/2000/svg">
<path d="M29.1007 6.76477C27.1355 6.76477 25.5293 8.37096 25.5293 10.3362V25.7744C25.5293 27.7396 27.1355 29.3458 29.1007 29.3458C31.0659 29.3458 32.6721 27.7396 32.6721 25.7744V10.3362C32.6721 8.37096 31.0659 6.76477 29.1007 6.76477Z" fill="url(#paint0_linear_258_3760)"/>
<path d="M50.7368 22.2409H45.597L53.4579 12.8684C54.7428 11.3567 54.535 9.1458 53.0233 7.86085C52.343 7.29397 51.5494 7.02942 50.699 7.02942H37.8118C35.9222 7.02942 34.4482 8.54112 34.4482 10.393C34.4482 12.207 35.9222 13.6809 37.8118 13.6809H43.5185L35.3553 23.5259C34.7506 24.2061 34.486 25.0754 34.486 25.869C34.5616 27.7586 36.1678 29.3648 38.0763 29.3648H50.7368C52.7209 29.3648 54.3271 27.7586 54.3271 25.7745C54.3271 23.8471 52.7209 22.2409 50.7368 22.2409Z" fill="url(#paint1_linear_258_3760)"/>
<path d="M78.5142 6.82153C76.171 6.82153 73.9224 7.69076 72.2406 9.07019C70.521 7.69076 68.3102 6.82153 65.9292 6.82153C64.3797 6.82153 62.9058 7.16166 61.602 7.82303C61.0351 7.31283 60.317 7.0105 59.4478 7.0105C57.6338 7.0105 56.1221 8.48441 56.1221 10.4118V25.7556C56.1221 27.7397 57.7283 29.3459 59.6557 29.3459C61.602 29.3459 63.2082 27.7397 63.2082 25.7556V16.6287C63.2082 15.117 64.4175 13.9076 65.9292 13.9076C67.4032 13.9076 68.6503 15.117 68.6503 16.6287V25.7556C68.6503 27.7397 70.2943 29.3459 72.2406 29.3459C74.1869 29.3459 75.7931 27.7397 75.7931 25.7556V16.6287C75.7931 15.117 77.0402 13.9076 78.5142 13.9076C80.0259 13.9076 81.2352 15.117 81.2352 16.6287V25.7556C81.2352 27.7397 82.8792 29.3459 84.7877 29.3459C86.734 29.3459 88.378 27.7397 88.378 25.7556V16.6287C88.378 11.2244 83.9185 6.82153 78.5142 6.82153Z" fill="url(#paint2_linear_258_3760)"/>
<path d="M101.587 6.85938C95.3136 6.85938 90.1738 11.9992 90.1738 18.2727C90.1738 24.5841 95.3136 29.6861 101.587 29.6861C107.861 29.6861 113.001 24.5841 113.001 18.2727C113.001 11.9992 107.861 6.85938 101.587 6.85938ZM101.587 22.6189C99.1685 22.6189 97.2599 20.7103 97.2599 18.2916C97.2599 15.8729 99.1685 13.9644 101.587 13.9644C104.006 13.9644 105.914 15.8729 105.914 18.2916C105.914 20.6914 104.006 22.6189 101.587 22.6189Z" fill="url(#paint3_linear_258_3760)"/>
<path d="M22.8645 18.2727C22.8645 14.5312 21.0316 11.1677 18.1782 9.08911C18.3483 7.50182 18.8396 6.31135 19.6143 5.64998C20.5025 4.89413 21.504 5.02641 21.5418 5.04531V5.00751C22.1086 5.68778 22.959 6.12239 23.9227 6.12239C25.5667 6.12239 26.965 4.74297 26.965 3.0423C26.965 1.39833 25.5856 0 23.9227 0C22.222 0 20.8426 1.37943 20.8426 3.0423C20.8426 3.34464 20.8804 3.64698 20.9749 3.93042C20.4269 3.98711 19.6521 4.17607 18.9152 4.78076C18.0082 5.5555 17.4224 6.76486 17.1578 8.38995C15.4761 7.40734 13.4919 6.84045 11.4134 6.84045C5.13979 6.84045 0 11.9802 0 18.2538C0 24.5652 5.13979 29.6672 11.4134 29.6672C17.7247 29.7049 22.8645 24.603 22.8645 18.2727ZM10.9787 24.4896H7.31286C6.84045 24.4896 6.48143 24.0172 6.48143 23.4881C6.48143 22.959 6.85935 22.4866 7.31286 22.4866H10.9787C11.4511 22.4866 11.8102 22.959 11.8102 23.4881C11.8102 24.0172 11.4322 24.4896 10.9787 24.4896ZM12.5471 19.9923C11.4323 19.9923 10.5063 19.312 10.0906 18.3483H8.01202C7.6152 19.3309 6.67039 19.9923 5.5933 19.9923C4.11939 19.9923 2.91003 18.7829 2.91003 17.3468C2.91003 15.9107 4.11939 14.7013 5.5933 14.7013C6.67039 14.7013 7.6152 15.4005 8.01202 16.3831H10.0906C10.4685 15.4005 11.4323 14.7013 12.5471 14.7013C13.9832 14.7013 15.1926 15.9107 15.1926 17.3468C15.1926 18.7829 13.9832 19.9923 12.5471 19.9923Z" fill="url(#paint4_linear_258_3760)"/>
<path d="M18.9911 29.705C16.1377 29.705 13.8135 32.0481 13.8135 34.9014C13.8135 37.7548 16.1377 40.079 18.9911 40.079C21.8444 40.079 24.1875 37.7548 24.1875 34.9014C24.2064 32.0481 21.8444 29.705 18.9911 29.705Z" fill="url(#paint5_linear_258_3760)"/>
<path d="M80.9514 43.1402H34.4099C31.4054 43.1402 28.9678 40.7026 28.9678 37.6981C28.9678 34.6936 31.4054 32.256 34.4099 32.256H80.9325C83.937 32.256 86.3747 34.6936 86.3747 37.6981C86.3747 40.7026 83.937 43.1402 80.9514 43.1402Z" fill="url(#paint6_linear_258_3760)"/>
<path d="M38.0195 35.6383C38.0195 35.3927 38.2085 35.2037 38.4541 35.2037C38.6998 35.2037 38.8888 35.3927 38.8888 35.6383V37.2823H41.2319V35.6383C41.2319 35.3927 41.4209 35.2037 41.6665 35.2037C41.9122 35.2037 42.1011 35.3927 42.1011 35.6383V39.7577C42.1011 40.0034 41.9122 40.1924 41.6665 40.1924C41.4398 40.1924 41.2319 40.0034 41.2319 39.7577V38.076H38.8888V39.7577C38.8888 40.0034 38.6998 40.1924 38.4541 40.1924C38.2085 40.1924 38.0195 40.0034 38.0195 39.7577V35.6383Z" fill="white"/>
<path d="M46.6357 37.717C46.6357 36.3187 47.7128 35.166 49.2056 35.166C50.6984 35.166 51.7755 36.3187 51.7755 37.6981V37.717C51.7755 39.0964 50.7173 40.2491 49.2056 40.2491C47.6939 40.2491 46.6357 39.0964 46.6357 37.717ZM50.8685 37.717C50.8685 36.7533 50.1694 35.9597 49.2056 35.9597C48.223 35.9597 47.5428 36.7344 47.5428 37.6981V37.717C47.5428 38.6807 48.2419 39.4555 49.2245 39.4555C50.1882 39.4366 50.8685 38.6807 50.8685 37.717Z" fill="white"/>
<path d="M56.2539 38.076V35.6383C56.2539 35.3927 56.4429 35.2037 56.6885 35.2037C56.9342 35.2037 57.1231 35.3927 57.1231 35.6383V38.0382C57.1231 38.9452 57.5955 39.4365 58.3703 39.4365C59.145 39.4365 59.5985 38.983 59.5985 38.076V35.6383C59.5985 35.3927 59.7875 35.2037 60.0332 35.2037C60.2788 35.2037 60.4678 35.3927 60.4678 35.6383V38.0382C60.4678 39.5121 59.6363 40.249 58.3514 40.249C57.0664 40.2301 56.2539 39.4932 56.2539 38.076Z" fill="white"/>
<path d="M65.0216 39.6066C64.9272 39.5311 64.8516 39.4177 64.8516 39.2854C64.8516 39.0587 65.0405 38.8886 65.2673 38.8886C65.3807 38.8886 65.4562 38.9264 65.5129 38.9642C65.9287 39.2854 66.3633 39.4744 66.8924 39.4744C67.4215 39.4744 67.7616 39.2287 67.7616 38.8508V38.8319C67.7616 38.4729 67.5726 38.2839 66.6467 38.076C65.6074 37.8304 65.0027 37.5092 65.0027 36.6021V36.5832C65.0027 35.7329 65.7019 35.166 66.6845 35.166C67.3081 35.166 67.7994 35.3361 68.234 35.6195C68.3285 35.6762 68.423 35.7896 68.423 35.9597C68.423 36.1864 68.234 36.3565 68.0072 36.3565C67.9317 36.3565 67.8561 36.3376 67.7805 36.2998C67.4026 36.0541 67.0435 35.9219 66.6467 35.9219C66.1365 35.9219 65.8531 36.1864 65.8531 36.5077V36.5265C65.8531 36.9045 66.0798 37.0745 67.0246 37.3013C68.0639 37.547 68.593 37.9249 68.593 38.7374V38.7563C68.593 39.6822 67.875 40.2302 66.8357 40.2302C66.1932 40.2302 65.5696 40.0224 65.0216 39.6066Z" fill="white"/>
<path d="M73.1475 39.72V35.6762C73.1475 35.4305 73.3364 35.2416 73.5821 35.2416H76.4354C76.6433 35.2416 76.8133 35.4116 76.8133 35.6195C76.8133 35.8274 76.6433 35.9974 76.4354 35.9974H73.9978V37.2824H76.1142C76.322 37.2824 76.4921 37.4524 76.4921 37.6792C76.4921 37.8871 76.322 38.0571 76.1142 38.0571H73.9978V39.3799H76.4543C76.6622 39.3799 76.8322 39.5499 76.8322 39.7578C76.8322 39.9657 76.6622 40.1357 76.4543 40.1357H73.5632C73.3364 40.1546 73.1475 39.9656 73.1475 39.72Z" fill="white"/>
<defs>
<linearGradient id="paint0_linear_258_3760" x1="29.0949" y1="29.3552" x2="29.0949" y2="6.76817" gradientUnits="userSpaceOnUse">
<stop offset="3.22937e-07" stop-color="#C944F3"/>
<stop offset="0.3473" stop-color="#AA3FEC"/>
<stop offset="1" stop-color="#6835DC"/>
</linearGradient>
<linearGradient id="paint1_linear_258_3760" x1="44.3859" y1="29.3632" x2="44.3859" y2="7.02987" gradientUnits="userSpaceOnUse">
<stop offset="3.22937e-07" stop-color="#C944F3"/>
<stop offset="0.3473" stop-color="#AA3FEC"/>
<stop offset="1" stop-color="#6835DC"/>
</linearGradient>
<linearGradient id="paint2_linear_258_3760" x1="72.2435" y1="29.3632" x2="72.2435" y2="6.82834" gradientUnits="userSpaceOnUse">
<stop offset="3.22937e-07" stop-color="#C944F3"/>
<stop offset="0.3473" stop-color="#AA3FEC"/>
<stop offset="1" stop-color="#6835DC"/>
</linearGradient>
<linearGradient id="paint3_linear_258_3760" x1="101.58" y1="29.699" x2="101.58" y2="6.862" gradientUnits="userSpaceOnUse">
<stop offset="3.22937e-07" stop-color="#C944F3"/>
<stop offset="0.3473" stop-color="#AA3FEC"/>
<stop offset="1" stop-color="#6835DC"/>
</linearGradient>
<linearGradient id="paint4_linear_258_3760" x1="13.4693" y1="29.699" x2="13.4693" y2="0.0246985" gradientUnits="userSpaceOnUse">
<stop offset="3.22937e-07" stop-color="#C944F3"/>
<stop offset="0.3473" stop-color="#AA3FEC"/>
<stop offset="1" stop-color="#6835DC"/>
</linearGradient>
<linearGradient id="paint5_linear_258_3760" x1="19.0132" y1="40.0765" x2="19.0132" y2="29.699" gradientUnits="userSpaceOnUse">
<stop offset="3.22937e-07" stop-color="#C944F3"/>
<stop offset="0.3473" stop-color="#AA3FEC"/>
<stop offset="1" stop-color="#6835DC"/>
</linearGradient>
<linearGradient id="paint6_linear_258_3760" x1="57.6784" y1="43.1377" x2="57.6784" y2="32.2688" gradientUnits="userSpaceOnUse">
<stop offset="3.22937e-07" stop-color="#C944F3"/>
<stop offset="1" stop-color="#6835DC"/>
</linearGradient>
</defs>
</svg>
