<svg width="24" height="24" viewBox="0 0 24 24" fill="none" xmlns="http://www.w3.org/2000/svg">
<path fill-rule="evenodd" clip-rule="evenodd" d="M5.06881 20.064C0.720008 16.2912 3.53041 7.88879 10.2168 8.94719V9.72479C4.57201 9.46319 2.08561 16.1976 5.06881 20.064ZM17.2608 5.49119C17.9472 6.04079 18.8952 6.44399 20.2008 6.52319V7.28639C18.756 7.01759 17.8416 6.29759 17.2608 5.49119ZM15.4488 1.47839C15.4488 1.75919 15.4848 2.06159 15.5304 2.33759H12.864V15.6072C12.864 16.2192 12.8016 16.764 12.6768 17.2416C11.592 19.632 8.52001 19.32 7.67041 17.6784C8.93521 18.4704 11.0136 18.2592 11.8656 16.38C11.9904 15.9024 12.0528 15.3576 12.0528 14.7456V1.47839H15.4488Z" fill="url(#paint0_linear_280_3502)"/>
<path fill-rule="evenodd" clip-rule="evenodd" d="M16.2602 2.33759V2.35439C16.2602 2.66159 16.3514 7.10399 21.0122 7.37999C21.0122 11.5128 21.0146 7.37999 21.0146 10.812C20.6642 10.8336 17.945 10.6368 16.2554 9.12719L16.2506 15.8088C16.2914 18.8352 14.609 21.8016 11.4554 22.3992C10.5722 22.5672 9.77544 22.5864 8.44104 22.2936C0.74904 19.992 3.30504 8.58239 11.0282 9.80399C11.0282 13.488 11.0306 9.80399 11.0306 13.488C7.83864 13.0176 6.77304 15.672 7.62024 17.5728C8.39304 19.3032 11.5682 19.6776 12.677 17.2368C12.8018 16.7592 12.8642 16.2144 12.8642 15.6024V2.33759H16.2602Z" fill="url(#paint1_linear_280_3502)"/>
<path fill-rule="evenodd" clip-rule="evenodd" d="M10.2164 9.72479C10.4804 9.73679 10.7516 9.76319 11.0276 9.80639C11.0276 13.4904 11.03 9.80639 11.03 13.4904C7.83796 13.02 6.77236 15.6744 7.61956 17.5752C7.63396 17.6088 7.65316 17.6448 7.66996 17.6784C7.29076 17.4408 6.98596 17.1144 6.80836 16.716C5.96116 14.8152 7.02676 12.1608 10.2188 12.6312C10.2164 9.25439 10.2164 12.0624 10.2164 9.72479ZM20.2004 7.28399C20.4548 7.32959 20.726 7.36319 21.0116 7.37999C21.0116 11.5128 21.014 7.37999 21.014 10.812C20.6636 10.8336 17.9444 10.6368 16.2548 9.12719L16.25 15.8088C16.2908 18.8352 14.6084 21.8016 11.4548 22.3992C10.5716 22.5672 9.77476 22.5864 8.44036 22.2936C6.93796 21.8448 5.82676 21.0456 5.06836 20.0616C5.74516 20.6496 6.59476 21.1248 7.62916 21.4344C8.96356 21.7248 9.75796 21.7056 10.6412 21.54C13.7948 20.9448 15.4796 17.976 15.4388 14.952L15.4436 8.26799C17.1356 9.77759 19.8524 9.97439 20.2052 9.95279C20.2052 6.76559 20.2004 10.1016 20.2004 7.28399ZM16.2596 2.33759V2.35439C16.2596 2.53439 16.2908 4.13999 17.2604 5.49119C16.094 4.55759 15.6764 3.20879 15.53 2.33759H16.2596Z" fill="url(#paint2_linear_280_3502)"/>
<defs>
<linearGradient id="paint0_linear_280_3502" x1="11.5953" y1="20.0755" x2="11.5953" y2="1.49452" gradientUnits="userSpaceOnUse">
<stop offset="3.22937e-07" stop-color="#C944F3"/>
<stop offset="1" stop-color="#6835DC"/>
</linearGradient>
<linearGradient id="paint1_linear_280_3502" x1="12.408" y1="22.5332" x2="12.408" y2="2.3551" gradientUnits="userSpaceOnUse">
<stop offset="3.22937e-07" stop-color="#C944F3"/>
<stop offset="1" stop-color="#6835DC"/>
</linearGradient>
<linearGradient id="paint2_linear_280_3502" x1="13.0437" y1="22.5332" x2="13.0437" y2="2.3551" gradientUnits="userSpaceOnUse">
<stop offset="3.22937e-07" stop-color="#C944F3"/>
<stop offset="1" stop-color="#6835DC"/>
</linearGradient>
</defs>
</svg>
